<?xml version="1.0" encoding="UTF-8" standalone="no"?>
<svg width="16px" height="16px" viewBox="0 0 16 16" version="1.1" xmlns="http://www.w3.org/2000/svg" xmlns:xlink="http://www.w3.org/1999/xlink">
    <!-- Generator: Sketch 50.2 (55047) - http://www.bohemiancoding.com/sketch -->
    <title>ic_field_logo</title>
    <desc>Created with Sketch.</desc>
    <defs></defs>
    <g id="Base-Elements" stroke="none" stroke-width="1" fill="none" fill-rule="evenodd">
        <g id="Extension-UI-Assets" transform="translate(-670.000000, -459.000000)">
            <g id="Sign-In-Specific" transform="translate(485.000000, 392.000000)">
                <g id="ic_field_logo" transform="translate(185.000000, 67.000000)">
                    <g id="logo_new-idsafe-copy-3">
                        <rect id="Rectangle-3" x="0" y="0" width="16" height="16"></rect>
                        <path d="M10.5588268,14.6072675 L10.5587643,14.6071145 C13.0287837,13.5972399 14.7692308,11.1690689 14.7692308,8.33413127 C14.7692308,4.59316582 11.7385429,1.56051412 8,1.56051412 C4.26145708,1.56051412 1.23076923,4.59316582 1.23076923,8.33413127 C1.23076923,11.1617761 2.96227334,13.5847444 5.42218805,14.5992927 C5.43049039,14.6022459 5.43876783,14.6053887 5.44701544,14.6087231 C5.76213514,14.7361223 5.91437961,15.0950202 5.78706299,15.4103441 C5.66068284,15.7233486 5.30634463,15.8757612 4.99292166,15.7533778 L4.99250924,15.7543827 C2.06464753,14.5649769 0,11.6908225 0,8.33413127 C0,3.91299028 3.581722,0.328947368 8,0.328947368 C12.418278,0.328947368 16,3.91299028 16,8.33413127 C16,11.6844966 13.943127,14.5541423 11.0240345,15.7476403 L11.0239519,15.7474378 C11.0213949,15.7485112 11.018827,15.7495693 11.0162481,15.7506119 C10.7011284,15.8780111 10.3424629,15.7256679 10.2151463,15.4103441 C10.0878297,15.0950202 10.2400741,14.7361223 10.5551938,14.6087231 L10.5588268,14.6072675 Z M9.74838231,12.5681749 C11.430487,11.8786958 12.6153846,10.2241536 12.6153846,8.29268432 C12.6153846,5.74202605 10.5490065,3.67430899 8,3.67430899 C5.45099346,3.67430899 3.38461538,5.74202605 3.38461538,8.29268432 C3.38461538,10.2233758 4.56855888,11.8773632 6.24958573,12.5673414 C6.25592266,12.5696672 6.26224437,12.5721039 6.26854865,12.5746527 C6.58366834,12.7020518 6.73591281,13.0609497 6.60859619,13.3762736 C6.48202603,13.6897487 6.12681183,13.8421486 5.81304146,13.7187535 L5.81275758,13.7194452 C3.66758338,12.8528876 2.15384615,10.7496766 2.15384615,8.29268432 C2.15384615,5.06185051 4.77125839,2.44274223 8,2.44274223 C11.2287416,2.44274223 13.8461538,5.06185051 13.8461538,8.29268432 C13.8461538,10.7410558 12.3430204,12.8381242 10.2097993,13.7102781 L10.2096202,13.7098391 C10.206713,13.7110658 10.2037915,13.7122728 10.200856,13.7134596 C9.88573627,13.8408587 9.52707077,13.6885156 9.39975415,13.3731917 C9.27243753,13.0578678 9.424682,12.6989699 9.73980169,12.5715708 C9.74265839,12.5704158 9.74551866,12.5692839 9.74838231,12.5681749 Z M4.96417933,9.09574923 C4.84769861,9.01334536 4.82007386,8.85211755 4.90247772,8.73563683 C4.90553035,8.73132184 4.90871467,8.72710155 4.91202621,8.72298192 L5.12900063,8.45305999 L4.81709511,8.37106357 C4.67831725,8.33458045 4.59539098,8.19250336 4.6318741,8.0537255 C4.63270258,8.05057404 4.63359028,8.04743845 4.63453672,8.04432038 C4.67625057,7.90689304 4.8214732,7.82930193 4.95890054,7.87101578 C4.96194891,7.87194107 4.96498002,7.87292229 4.96799234,7.87395895 L5.29111994,7.9851607 L5.26822367,7.66044801 C5.2577567,7.51200645 5.36960721,7.38318562 5.51804877,7.37271865 C5.52435636,7.37227389 5.53067765,7.3720513 5.5370009,7.3720513 C5.68450882,7.3720513 5.80408761,7.49163009 5.80408761,7.63913801 C5.80408761,7.64618652 5.80380859,7.65323226 5.80325121,7.6602587 L5.77747789,7.9851607 L6.10576014,7.87323109 C6.2420832,7.82675101 6.39027443,7.89958313 6.43675452,8.03590619 C6.43770552,8.03869541 6.43860917,8.04150054 6.43946509,8.04432038 C6.48104671,8.18131211 6.40370155,8.32607441 6.26670982,8.36765604 C6.26340878,8.36865802 6.26008807,8.369594 6.25674966,8.37046342 L5.9395972,8.45305999 L6.15657162,8.72298192 C6.2459646,8.83418916 6.22828066,8.99680777 6.11707342,9.08620075 C6.11295378,9.08951228 6.10873349,9.09269661 6.1044185,9.09574923 C5.98591922,9.17958112 5.8218974,9.15147764 5.73806551,9.03297836 C5.73582823,9.02981589 5.73366115,9.02660434 5.73156584,9.02334607 L5.53429891,8.71658947 L5.33703199,9.02334607 C5.25851987,9.14543502 5.09590057,9.18076102 4.97381162,9.1022489 C4.97055335,9.10015359 4.9673418,9.09798651 4.96417933,9.09574923 Z M7.42264079,9.09574923 C7.30616007,9.01334536 7.27853533,8.85211755 7.36093919,8.73563683 C7.36399182,8.73132184 7.36717614,8.72710155 7.37048767,8.72298192 L7.5874621,8.45305999 L7.27555658,8.37106357 C7.13677872,8.33458045 7.05385245,8.19250336 7.09033557,8.0537255 C7.09116405,8.05057404 7.09205175,8.04743845 7.09299819,8.04432038 C7.13471204,7.90689304 7.27993467,7.82930193 7.41736201,7.87101578 C7.42041038,7.87194107 7.42344149,7.87292229 7.42645381,7.87395895 L7.74958141,7.9851607 L7.72668514,7.66044801 C7.71621817,7.51200645 7.82806868,7.38318562 7.97651024,7.37271865 C7.98281783,7.37227389 7.98913912,7.3720513 7.99546237,7.3720513 C8.14297029,7.3720513 8.26254908,7.49163009 8.26254908,7.63913801 C8.26254908,7.64618652 8.26227006,7.65323226 8.26171268,7.6602587 L8.23593935,7.9851607 L8.56422161,7.87323109 C8.70054467,7.82675101 8.8487359,7.89958313 8.89521599,8.03590619 C8.89616698,8.03869541 8.89707064,8.04150054 8.89792655,8.04432038 C8.93950818,8.18131211 8.86216302,8.32607441 8.72517129,8.36765604 C8.72187025,8.36865802 8.71854953,8.369594 8.71521113,8.37046342 L8.39805867,8.45305999 L8.61503309,8.72298192 C8.70442607,8.83418916 8.68674212,8.99680777 8.57553489,9.08620075 C8.57141525,9.08951228 8.56719496,9.09269661 8.56287997,9.09574923 C8.44438069,9.17958112 8.28035887,9.15147764 8.19652698,9.03297836 C8.1942897,9.02981589 8.19212262,9.02660434 8.19002731,9.02334607 L7.99276038,8.71658947 L7.79549346,9.02334607 C7.71698134,9.14543502 7.55436204,9.18076102 7.43227309,9.1022489 C7.42901481,9.10015359 7.42580327,9.09798651 7.42264079,9.09574923 Z M9.88417926,9.09574923 C9.76769854,9.01334536 9.74007379,8.85211755 9.82247765,8.73563683 C9.82553028,8.73132184 9.8287146,8.72710155 9.83202614,8.72298192 L10.0490006,8.45305999 L9.73709504,8.37106357 C9.59831718,8.33458045 9.51539091,8.19250336 9.55187403,8.0537255 C9.55270251,8.05057404 9.55359021,8.04743845 9.55453665,8.04432038 C9.5962505,7.90689304 9.74147313,7.82930193 9.87890047,7.87101578 C9.88194884,7.87194107 9.88497995,7.87292229 9.88799227,7.87395895 L10.2111199,7.9851607 L10.1882236,7.66044801 C10.1777566,7.51200645 10.2896071,7.38318562 10.4380487,7.37271865 C10.4443563,7.37227389 10.4506776,7.3720513 10.4570008,7.3720513 C10.6045087,7.3720513 10.7240875,7.49163009 10.7240875,7.63913801 C10.7240875,7.64618652 10.7238085,7.65323226 10.7232511,7.6602587 L10.6974778,7.9851607 L11.0257601,7.87323109 C11.1620831,7.82675101 11.3102744,7.89958313 11.3567544,8.03590619 C11.3577054,8.03869541 11.3586091,8.04150054 11.359465,8.04432038 C11.4010466,8.18131211 11.3237015,8.32607441 11.1867098,8.36765604 C11.1834087,8.36865802 11.180088,8.369594 11.1767496,8.37046342 L10.8595971,8.45305999 L11.0765716,8.72298192 C11.1659645,8.83418916 11.1482806,8.99680777 11.0370733,9.08620075 C11.0329537,9.08951228 11.0287334,9.09269661 11.0244184,9.09574923 C10.9059192,9.17958112 10.7418973,9.15147764 10.6580654,9.03297836 C10.6558282,9.02981589 10.6536611,9.02660434 10.6515658,9.02334607 L10.4542988,8.71658947 L10.2570319,9.02334607 C10.1785198,9.14543502 10.0159005,9.18076102 9.89381155,9.1022489 C9.89055328,9.10015359 9.88734173,9.09798651 9.88417926,9.09574923 Z" id="icon_password-manager" fill="#666666"></path>
                    </g>
                </g>
            </g>
        </g>
    </g>
</svg>