<svg xmlns="http://www.w3.org/2000/svg" width="149.551" height="98.146" viewBox="0 0 149.551 98.146">
  <g id="Roar_Bikes_Logo" data-name="Roar Bikes Logo" transform="translate(-18.6 -31.305)">
    <path id="Path_12" data-name="Path 12" d="M141.925,66.634a8.7,8.7,0,0,0,1.826-.7c.07,1.124.281,4.215-1.9,5.83-.281-.211-.632-.351-.843-.492l.913-4.636ZM105.679,52.8a15.847,15.847,0,0,1,4.425-3.3c-15.243,20.582,14.611,33.717,8.359,51.349,4.987-2.74,7.586-7.024,7.727-11.59.421-12.082-18.193-15.313-8.219-33.085-3.793,11.942-.351,16.156,8.219,22.478-1.545-3.723.632-9.132,5.2-11.942l-6.884-2.88,9.483,2.388c-4.285,2.178-8.359,9.413-4.847,13.346,2.318,2.6,6.884.913,8.851,5.83,2.74-1.616,2.88-3.582,3.091-6.182a5.936,5.936,0,0,1,.632,3.582c2.88-2.74,2.529-8.5-1.475-10.326a21.86,21.86,0,0,0-4.5,1.9c-2.318,1.194-1.264,2.6-4.215,2.388,0,0-1.124-1.054,2.88-3.161a31.737,31.737,0,0,1,5.339-2.318l.913-4.566a7.162,7.162,0,0,0-1.686-1.756c-.843-.7-2.178-1.4-3.091-2.107-.351-.281-.843-.351-.913-.632.7-1.475,4.5-.983,5.971-.843a8.939,8.939,0,0,1,2.529-.211c-2.88-2.669-10.256-8.078-13.7-10.747a21.285,21.285,0,0,0-2.6-4.847,10.117,10.117,0,0,1,3.512,4.285l1.967,1.264c1.194-6.884-1.335-18.4-13.908-17.35a10.717,10.717,0,0,1,3.372,6.252c-13.417-18.826-41.3-3.723-39.9,13.206.913-1.826,6.533-7.446,11.52-8.078C82.919,51.672,72.453,67.056,83.271,79.77c-3.231-10.747,3.3-22.338,11.169-26.693-23.11,25.148.07,37.3,8.64,51.559,8.5-16.3-22.548-18.966-10.818-43.2-4.074,15.735,4.355,23.251,12.293,28.519-7.305-11.028-6.462-23.672-.14-35.122-4.987,4.285-9.343,10.607-8.57,20.933-2.529-8.781.562-16.648,7.024-22.408-4.355-5.058-3.582-13.487,3.091-15.032a8.337,8.337,0,0,1,9.132,4.987c-6.673-9.062-19.317.211-9.413,9.483ZM89.593,42.681c6.111-9.272,20.511-11.59,27.957-3.512-9.483-6.182-20.652-3.161-27.957,3.512Zm24.867,32.8c-7.024-10.818-7.516-21.284,3.582-28.941-9.764,10.256-7.446,19.387-3.582,28.941ZM103.782,63.333c1.124,15.735,20.02,26.833,11.1,43.622-2.037-13.136-18.334-22.689-11.1-43.622Zm9.553-19.106c-1.756,1.686-4.074.07-8.289,2.74-.913-6.252,6.533-5.971,8.289-2.74Zm13.346,8.71c1.054.421,6.322,6.673,7.095,8.008-2.459-2.107-4.5-3.934-7.235-5.971l-2.107.913.421-1.264-4.425-1.264,3.653-1.335c1.756-.632,1.194-1.4.351-2.318,1.475.421,2.74,1.194,2.248,3.231ZM126.05,102.6a10.812,10.812,0,0,0-.07-6.673c2.178-3.934,3.161-9.834,1.264-13.979C135.322,87.778,137.289,98.877,126.05,102.6Z" transform="translate(-17.888 0)" fill="#000"/>
  </g>
</svg>
